<?xml version="1.0" encoding="UTF-8"?>
<svg xmlns="http://www.w3.org/2000/svg" xmlns:xlink="http://www.w3.org/1999/xlink" width="473.21pt" height="212.5pt" viewBox="0 0 473.21 212.5" version="1.1">
<g id="surface1">
<path style=" stroke:none;fill-rule:evenodd;fill:rgb(100%,0%,0%);fill-opacity:1;" d="M 62.210938 81.070313 L 54.40625 81.070313 L 54.40625 62.019531 L 46.140625 62.019531 L 46.140625 81.070313 L 38.566406 81.070313 L 38.566406 36.996094 L 46.140625 36.996094 L 46.140625 54.902344 L 54.40625 54.902344 L 54.40625 36.996094 L 62.210938 36.996094 Z M 65.421875 59.03125 C 65.421875 45.488281 70.242188 36.996094 76.214844 36.078125 C 70.242188 28.964844 60.375 25.058594 51.421875 25.058594 C 41.550781 25.058594 32.597656 29.191406 26.398438 36.078125 C 32.367188 37.226563 34.203125 42.277344 34.203125 49.851563 L 27.089844 49.851563 C 27.089844 45.261719 26.167969 42.964844 23.414063 42.964844 C 22.269531 42.964844 21.347656 43.652344 20.890625 44.570313 C 20.890625 44.800781 20.660156 45.03125 20.660156 45.03125 C 20.429688 45.71875 20.203125 46.40625 20.203125 47.097656 C 20.203125 56.277344 35.582031 55.820313 35.582031 70.28125 C 35.582031 75.789063 31.21875 81.070313 26.398438 81.070313 C 32.828125 87.957031 41.320313 92.089844 51.421875 92.089844 C 61.0625 92.089844 69.785156 87.957031 75.984375 81.300781 C 70.242188 79.925781 65.421875 71.890625 65.421875 59.03125 "/>
<path style=" stroke:none;fill-rule:evenodd;fill:rgb(100%,0%,0%);fill-opacity:1;" d="M 24.5625 74.1875 C 26.628906 74.1875 28.234375 72.117188 28.234375 69.363281 C 28.234375 63.855469 23.1875 62.707031 17.90625 57.886719 L 17.90625 59.726563 C 18.097656 68.363281 21.128906 74.1875 24.5625 74.1875 "/>
<path style=" stroke:none;fill-rule:evenodd;fill:rgb(100%,0%,0%);fill-opacity:1;" d="M 73 58.347656 C 73 50.769531 75.066406 43.425781 78.96875 43.425781 C 83.789063 43.425781 84.933594 54.902344 84.933594 58.574219 C 84.933594 66.382813 82.410156 73.726563 78.96875 73.726563 C 75.066406 73.726563 73 66.148438 73 58.347656 "/>
<path style=" stroke:none;fill-rule:evenodd;fill:rgb(100%,0%,0%);fill-opacity:1;" d="M 149.671875 37.6875 L 117.304688 37.6875 L 114.089844 62.9375 L 110.644531 37.6875 L 103.53125 37.6875 L 99.855469 62.9375 L 99.628906 62.9375 L 96.871094 37.6875 L 89.757813 37.6875 L 95.496094 80.609375 L 102.382813 80.609375 L 106.285156 53.296875 L 106.515625 53.296875 L 110.1875 80.609375 L 117.304688 80.609375 L 121.894531 44.34375 L 128.550781 44.34375 L 128.550781 80.609375 L 136.355469 80.609375 L 136.355469 44.34375 L 143.472656 44.34375 L 143.472656 80.609375 L 151.507813 80.609375 L 151.507813 37.6875 L 149.671875 37.6875 "/>
<path style=" stroke:none;fill-rule:evenodd;fill:rgb(100%,0%,0%);fill-opacity:1;" d="M 155.179688 37.6875 L 165.738281 37.6875 L 169.183594 59.722656 L 172.855469 37.6875 L 183.183594 37.6875 L 183.183594 80.609375 L 176.066406 80.609375 L 176.066406 49.164063 L 170.789063 80.609375 L 166.429688 80.609375 L 161.148438 49.164063 L 160.917969 49.164063 L 160.917969 80.609375 L 155.179688 80.609375 L 155.179688 37.6875 "/>
<path style=" stroke:none;fill-rule:evenodd;fill:rgb(100%,0%,0%);fill-opacity:1;" d="M 186.859375 37.6875 L 204.53125 37.6875 L 204.53125 44.34375 L 194.664063 44.34375 L 194.664063 55.132813 L 202.007813 55.132813 L 202.007813 62.246094 L 194.664063 62.246094 L 194.664063 73.953125 L 204.992188 73.953125 L 204.992188 80.609375 L 186.859375 80.609375 L 186.859375 37.6875 "/>
<path style=" stroke:none;fill-rule:nonzero;fill:rgb(0%,0%,0%);fill-opacity:1;" d="M 82.960938 94.570313 C 82.960938 87.789063 86.769531 86.1875 93.167969 86.1875 L 101.519531 86.1875 C 111.632813 86.1875 112.945313 88.363281 112.878906 94.925781 L 105.777344 94.925781 L 105.777344 94.285156 C 105.777344 92.621094 104.5625 92.140625 102.449219 92.140625 L 94.707031 92.140625 C 90.960938 92.140625 90.257813 93.898438 90.257813 96.78125 L 90.257813 99.277344 C 90.257813 102.636719 90.960938 103.914063 94.320313 103.914063 L 101.90625 103.914063 C 105.105469 103.914063 106.0625 103.597656 106.0625 100.714844 L 113.167969 100.714844 L 113.167969 102.890625 C 113.167969 106.796875 111.761719 109.867188 104.625 109.867188 L 93.167969 109.867188 C 86.769531 109.867188 82.960938 108.269531 82.960938 101.484375 L 82.960938 94.570313 "/>
<path style=" stroke:none;fill-rule:nonzero;fill:rgb(0%,0%,0%);fill-opacity:1;" d="M 117.457031 86.445313 L 124.5625 86.445313 L 124.5625 94.699219 L 139.535156 94.699219 L 139.535156 86.445313 L 146.640625 86.445313 L 146.640625 109.609375 L 139.535156 109.609375 L 139.535156 100.84375 L 124.5625 100.84375 L 124.5625 109.609375 L 117.457031 109.609375 L 117.457031 86.445313 "/>
<path style=" stroke:none;fill-rule:nonzero;fill:rgb(0%,0%,0%);fill-opacity:1;" d="M 161.839844 100.523438 L 170.929688 100.523438 L 166.320313 91.820313 Z M 161.710938 86.445313 L 170.960938 86.445313 L 183.695313 109.609375 L 175.789063 109.609375 L 173.582031 105.515625 L 159.183594 105.515625 L 157.105469 109.609375 L 149.167969 109.609375 L 161.710938 86.445313 "/>
<path style=" stroke:none;fill-rule:nonzero;fill:rgb(0%,0%,0%);fill-opacity:1;" d="M 186.226563 86.445313 L 197.136719 86.445313 L 205.167969 101.355469 L 213.199219 86.445313 L 224.109375 86.445313 L 224.109375 109.609375 L 217.199219 109.609375 L 217.199219 92.972656 L 217.136719 92.972656 L 207.824219 109.609375 L 202.511719 109.609375 L 193.199219 92.972656 L 193.136719 92.972656 L 193.136719 109.609375 L 186.226563 109.609375 L 186.226563 86.445313 "/>
<path style=" stroke:none;fill-rule:nonzero;fill:rgb(0%,0%,0%);fill-opacity:1;" d="M 236.015625 98.027344 L 247.058594 98.027344 C 248.71875 98.027344 249.359375 96.941406 249.359375 95.5625 L 249.359375 94.667969 C 249.359375 93.101563 248.59375 92.203125 246.449219 92.203125 L 236.015625 92.203125 Z M 228.914063 86.445313 L 248.273438 86.445313 C 255.023438 86.445313 256.65625 89.835938 256.65625 94.382813 L 256.65625 96.363281 C 256.65625 99.820313 255.152344 103.789063 250.128906 103.789063 L 236.015625 103.789063 L 236.015625 109.609375 L 228.914063 109.609375 L 228.914063 86.445313 "/>
<path style=" stroke:none;fill-rule:nonzero;fill:rgb(0%,0%,0%);fill-opacity:1;" d="M 260.882813 86.445313 L 267.984375 86.445313 L 267.984375 109.609375 L 260.882813 109.609375 L 260.882813 86.445313 "/>
<path style=" stroke:none;fill-rule:nonzero;fill:rgb(0%,0%,0%);fill-opacity:1;" d="M 279.953125 99.277344 C 279.953125 102.636719 280.65625 103.914063 284.015625 103.914063 L 293.105469 103.914063 C 296.464844 103.914063 297.167969 102.636719 297.167969 99.277344 L 297.167969 96.78125 C 297.167969 93.898438 296.464844 92.140625 292.71875 92.140625 L 284.398438 92.140625 C 280.65625 92.140625 279.953125 93.898438 279.953125 96.78125 Z M 272.65625 94.570313 C 272.65625 87.789063 276.464844 86.1875 282.863281 86.1875 L 294.257813 86.1875 C 300.65625 86.1875 304.464844 87.789063 304.464844 94.570313 L 304.464844 101.484375 C 304.464844 108.269531 300.65625 109.867188 294.257813 109.867188 L 282.863281 109.867188 C 276.464844 109.867188 272.65625 108.269531 272.65625 101.484375 L 272.65625 94.570313 "/>
<path style=" stroke:none;fill-rule:nonzero;fill:rgb(0%,0%,0%);fill-opacity:1;" d="M 308.753906 86.445313 L 319.761719 86.445313 L 333.105469 103.277344 L 333.167969 103.277344 L 333.167969 86.445313 L 340.269531 86.445313 L 340.269531 109.609375 L 329.265625 109.609375 L 315.921875 92.78125 L 315.855469 92.78125 L 315.855469 109.609375 L 308.753906 109.609375 L 308.753906 86.445313 "/>
<path style=" stroke:none;fill-rule:nonzero;fill:rgb(0%,0%,0%);fill-opacity:1;" d="M 344.65625 102.027344 L 351.761719 102.027344 C 351.792969 104.492188 352.785156 104.683594 354.832031 104.683594 L 363.535156 104.683594 C 365.039063 104.683594 366.574219 104.523438 366.574219 102.730469 C 366.574219 100.714844 365.742188 100.589844 356.59375 100.589844 C 345.902344 100.589844 344.6875 99.308594 344.6875 93.613281 C 344.6875 89.421875 345.070313 86.1875 354.03125 86.1875 L 363.949219 86.1875 C 372.144531 86.1875 372.910156 88.972656 372.910156 93.035156 L 372.910156 93.773438 L 365.808594 93.773438 C 365.808594 92.078125 365.613281 91.371094 362.351563 91.371094 L 354.480469 91.371094 C 352.878906 91.371094 351.792969 91.917969 351.792969 93.164063 C 351.792969 95.179688 352.65625 95.242188 360.269531 95.214844 C 371.3125 95.179688 373.871094 95.851563 373.871094 102.605469 C 373.871094 108.84375 371.757813 109.867188 362.320313 109.867188 L 353.710938 109.867188 C 347.246094 109.867188 344.65625 108.652344 344.65625 103.628906 L 344.65625 102.027344 "/>
<path style=" stroke:none;fill-rule:nonzero;fill:rgb(0%,0%,0%);fill-opacity:1;" d="M 378.257813 86.445313 L 385.359375 86.445313 L 385.359375 94.699219 L 400.335938 94.699219 L 400.335938 86.445313 L 407.4375 86.445313 L 407.4375 109.609375 L 400.335938 109.609375 L 400.335938 100.84375 L 385.359375 100.84375 L 385.359375 109.609375 L 378.257813 109.609375 L 378.257813 86.445313 "/>
<path style=" stroke:none;fill-rule:nonzero;fill:rgb(0%,0%,0%);fill-opacity:1;" d="M 412.625 86.445313 L 419.726563 86.445313 L 419.726563 109.609375 L 412.625 109.609375 L 412.625 86.445313 "/>
<path style=" stroke:none;fill-rule:nonzero;fill:rgb(0%,0%,0%);fill-opacity:1;" d="M 432.015625 98.027344 L 443.054688 98.027344 C 444.71875 98.027344 445.359375 96.941406 445.359375 95.5625 L 445.359375 94.667969 C 445.359375 93.101563 444.589844 92.203125 442.445313 92.203125 L 432.015625 92.203125 Z M 424.910156 86.445313 L 444.269531 86.445313 C 451.019531 86.445313 452.652344 89.835938 452.652344 94.382813 L 452.652344 96.363281 C 452.652344 99.820313 451.148438 103.789063 446.125 103.789063 L 432.015625 103.789063 L 432.015625 109.609375 L 424.910156 109.609375 L 424.910156 86.445313 "/>
<path style=" stroke:none;fill-rule:nonzero;fill:rgb(0%,0%,0%);fill-opacity:1;" d="M 103.898438 163.738281 L 127.144531 163.738281 L 127.144531 155.039063 L 103.898438 155.039063 Z M 103.898438 141.414063 L 127.144531 141.414063 L 127.144531 133.066406 L 103.898438 133.066406 Z M 83.023438 182.109375 L 83.023438 114.871094 L 133.867188 114.871094 C 138.789063 114.871094 142.363281 115.929688 144.59375 118.035156 C 146.816406 120.144531 147.933594 123.53125 147.933594 128.1875 L 147.933594 137.636719 C 147.933594 139.65625 147.570313 141.320313 146.855469 142.625 C 146.136719 143.929688 144.605469 145.445313 142.261719 147.171875 C 144.371094 147.964844 145.84375 149.085938 146.679688 150.535156 C 147.515625 151.984375 147.933594 154.320313 147.933594 157.542969 L 147.933594 166.992188 C 147.933594 172.292969 146.796875 176.140625 144.523438 178.527344 C 142.253906 180.914063 138.644531 182.109375 133.691406 182.109375 L 83.023438 182.109375 "/>
<path style=" stroke:none;fill-rule:nonzero;fill:rgb(0%,0%,0%);fill-opacity:1;" d="M 173.015625 163.738281 L 194.636719 163.738281 L 194.636719 133.066406 L 173.015625 133.066406 Z M 215.601563 164.003906 C 215.601563 170.011719 214.238281 174.527344 211.511719 177.5625 C 208.789063 180.59375 204.714844 182.109375 199.296875 182.109375 L 168.359375 182.109375 C 162.910156 182.109375 158.8125 180.59375 156.074219 177.5625 C 153.335938 174.527344 151.96875 170.011719 151.96875 164.003906 L 151.96875 133.066406 C 151.96875 126.914063 153.3125 122.34375 156.011719 119.355469 C 158.703125 116.367188 162.820313 114.871094 168.359375 114.871094 L 199.296875 114.871094 C 204.863281 114.871094 208.972656 116.351563 211.621094 119.3125 C 214.273438 122.269531 215.601563 126.855469 215.601563 133.066406 L 215.601563 164.003906 "/>
<path style=" stroke:none;fill-rule:nonzero;fill:rgb(0%,0%,0%);fill-opacity:1;" d="M 289.652344 182.109375 L 289.652344 114.871094 L 310.613281 114.871094 L 310.613281 182.109375 L 289.652344 182.109375 "/>
<path style=" stroke:none;fill-rule:nonzero;fill:rgb(0%,0%,0%);fill-opacity:1;" d="M 316.207031 182.109375 L 316.207031 114.871094 L 341.957031 114.871094 L 358.351563 141.328125 C 358.847656 142.148438 359.425781 143.21875 360.085938 144.535156 C 360.742188 145.855469 361.632813 147.699219 362.742188 150.074219 C 362.363281 148.199219 362.085938 146.242188 361.910156 144.207031 C 361.734375 142.167969 361.644531 139.953125 361.644531 137.546875 L 361.644531 114.871094 L 381.640625 114.871094 L 381.640625 182.109375 L 361.644531 182.109375 L 339.539063 146.910156 C 339.042969 146.148438 338.40625 144.996094 337.628906 143.460938 C 336.851563 141.921875 336.011719 140.171875 335.101563 138.207031 C 335.484375 140.082031 335.761719 142.023438 335.9375 144.03125 C 336.113281 146.035156 336.199219 148.226563 336.199219 150.601563 L 336.199219 182.109375 L 316.207031 182.109375 "/>
<path style=" stroke:none;fill-rule:nonzero;fill:rgb(0%,0%,0%);fill-opacity:1;" d="M 451.726563 164.003906 C 451.726563 170.011719 450.355469 174.527344 447.617188 177.5625 C 444.878906 180.59375 440.78125 182.109375 435.335938 182.109375 L 402.507813 182.109375 C 397.058594 182.109375 392.964844 180.59375 390.226563 177.5625 C 387.484375 174.527344 386.113281 170.011719 386.113281 164.003906 L 386.113281 133.066406 C 386.113281 126.710938 387.464844 122.085938 390.15625 119.203125 C 392.855469 116.316406 397.144531 114.871094 403.035156 114.871094 L 450.980469 114.871094 L 450.980469 133.066406 L 407.164063 133.066406 L 407.164063 163.652344 L 431.027344 163.652344 L 431.027344 141.59375 L 451.726563 141.59375 L 451.726563 164.003906 "/>
<path style=" stroke:none;fill-rule:nonzero;fill:rgb(0%,0%,0%);fill-opacity:1;" d="M 254.859375 147.828125 L 238.769531 182.109375 L 214.4375 182.109375 L 232.238281 147.832031 L 215.40625 114.871094 L 238.507813 114.871094 L 254.859375 147.828125 "/>
<path style=" stroke:none;fill-rule:nonzero;fill:rgb(0%,0%,0%);fill-opacity:1;" d="M 258.84375 147.835938 L 250.980469 132.089844 L 260.660156 114.871094 L 284.609375 114.871094 L 267.777344 147.832031 L 285.578125 182.109375 L 260.484375 182.109375 L 251.105469 164.203125 L 258.84375 147.835938 "/>
</g>
</svg>
