<?xml version="1.0" encoding="utf-8"?>
<!-- Generator: Adobe Illustrator 16.0.0, SVG Export Plug-In . SVG Version: 6.00 Build 0)  -->
<!DOCTYPE svg PUBLIC "-//W3C//DTD SVG 1.1//EN" "http://www.w3.org/Graphics/SVG/1.1/DTD/svg11.dtd">
<svg version="1.1" id="Layer_1" xmlns="http://www.w3.org/2000/svg" xmlns:xlink="http://www.w3.org/1999/xlink" x="0px" y="0px"
	 width="1000px" height="211.166px" viewBox="0 0 1000 211.166" enable-background="new 0 0 1000 211.166" xml:space="preserve">
<g>
	<rect x="633.456" y="23.712" fill-rule="evenodd" clip-rule="evenodd" fill="#FF0000" width="14.117" height="162.729"/>
	<path fill-rule="evenodd" clip-rule="evenodd" fill="#FF0000" d="M151.869,107.035c0-42.303,15.918-68.964,34.885-71.734
		C167.8,12.292,136.08,0,107.27,0C75.574,0,47.067,13.526,27.426,35.05c18.755,3.689,25.132,19.142,25.132,43.021H29.633
		c0-14.066-3.015-21.394-11.499-21.394c-3.781,0-6.737,1.892-8.51,5.141c-0.27,0.551-0.539,1.109-0.75,1.677
		c-0.679,1.787-1.014,3.843-1.014,6.201c0,29.263,48.806,27.795,48.806,72.752c0,17.568-13.67,33.944-29.049,33.944
		c20.212,21.74,47.837,34.774,79.653,34.774c30.942,0,58.815-12.903,78.373-33.505C167.622,173.157,151.869,147.617,151.869,107.035
		z M141.674,176.758h-24.556v-60.126H90.569v60.126H66.008V38.071h24.561v55.892h26.548V38.071h24.556V176.758z"/>
	<path fill-rule="evenodd" clip-rule="evenodd" fill="#FF0000" d="M21.207,154.631c6.85,0,11.719-5.916,11.719-14.535
		c0-17.862-15.881-21.364-32.921-36.431C-0.24,134.281,9.396,154.631,21.207,154.631"/>
	<path fill-rule="evenodd" clip-rule="evenodd" fill="#FF0000" d="M176.243,104.785c0-23.294,6.928-46.649,19.504-46.649
		c15.019,0,18.784,36.064,18.784,47.446c0,25.006-8,47.62-18.784,47.62C182.857,153.202,176.243,129.422,176.243,104.785"/>
	<polyline fill-rule="evenodd" clip-rule="evenodd" fill="#FF0000" points="421.447,40.006 317.966,40.006 308.152,119.168 
		307.763,119.168 296.818,40.006 274.303,40.006 262.323,119.168 261.955,119.168 253.122,40.006 230.379,40.006 248.678,174.896 
		270.601,174.896 282.958,89.426 283.334,89.426 295.252,174.896 317.966,174.896 333.102,60.831 354.341,60.831 354.341,174.896 
		379.345,174.896 379.345,60.831 402.286,60.831 402.286,174.896 427.261,174.896 427.261,40.006 421.447,40.006 	"/>
	<polyline fill-rule="evenodd" clip-rule="evenodd" fill="#FF0000" points="439.609,40.006 472.899,40.006 484.076,109.144 
		484.449,109.144 496.213,40.006 528.729,40.006 528.729,174.896 506.4,174.896 506.4,75.992 506.023,75.992 489.078,174.896 
		475.209,174.896 458.463,75.992 458.083,75.992 458.083,174.896 439.609,174.896 439.609,40.006 	"/>
	<polyline fill-rule="evenodd" clip-rule="evenodd" fill="#FF0000" points="541.002,40.006 597.59,40.006 597.59,60.831 
		566.035,60.831 566.035,95.32 589.336,95.32 589.336,117.312 566.035,117.312 566.035,154.043 598.94,154.043 598.94,174.896 
		541.002,174.896 541.002,40.006 	"/>
	<path fill-rule="evenodd" clip-rule="evenodd" fill="#FF0000" d="M606.472,165.902c0-2.197,0.895-4.309,2.477-5.874
		c1.591-1.521,3.71-2.408,5.984-2.408c2.269,0,4.39,0.887,6.009,2.408c1.564,1.565,2.459,3.677,2.459,5.874
		c0,4.643-3.789,8.34-8.468,8.34c-2.274,0-4.394-0.83-5.984-2.396C607.367,170.277,606.472,168.174,606.472,165.902z
		 M607.921,172.838c1.885,1.866,4.356,2.881,7.012,2.881c5.495,0,9.917-4.351,9.917-9.816c0-2.549-1.019-4.996-2.869-6.891
		c-1.918-1.819-4.394-2.849-7.048-2.849c-2.655,0-5.127,1.029-7.012,2.849c-1.871,1.895-2.919,4.342-2.919,6.891
		C605.002,168.532,606.05,170.974,607.921,172.838z"/>
	<path fill-rule="evenodd" clip-rule="evenodd" fill="#FF0000" d="M612.61,165.584v-3.93h2.786c0.576,0,1.077,0,1.565,0.329
		c0.535,0.331,0.808,0.896,0.808,1.505c0,0.553-0.187,1.092-0.608,1.501c-0.526,0.569-1.188,0.595-1.93,0.595H612.61z
		 M619.252,171.479l-2.179-5.131c1.292-0.327,2.066-1.492,2.066-2.812c0-0.946-0.431-1.874-1.172-2.436
		c-0.767-0.555-1.632-0.673-2.572-0.673h-4.19v11.051h1.404v-4.754h3.109l2.066,4.754H619.252z"/>
	<polyline fill-rule="evenodd" clip-rule="evenodd" fill="#FF0000" points="970.395,39.998 950.407,132.895 930.6,39.998 
		895.807,39.998 930.219,174.896 965.397,174.896 1000,39.998 970.395,39.998 	"/>
	<path fill-rule="evenodd" clip-rule="evenodd" fill="#FF0000" d="M843.518,39.998h-47.295v134.898h35.187v-55.245
		c5.573,0.569,10.572,0.946,14.995,0.946c18.543,0,32.191-5.514,40.11-15.396c5.209-6.51,7.95-14.914,7.95-24.9
		C894.465,53.624,877.549,39.998,843.518,39.998z M831.41,64.408h4.229c15.765,0,22.875,4.163,22.875,15.893
		s-7.11,15.893-22.875,15.893h-4.229V64.408z"/>
	<path fill-rule="evenodd" clip-rule="evenodd" fill="#FF0000" d="M732.596,39.998H685.31v134.898h35.178v-55.245
		c5.573,0.569,10.576,0.946,14.995,0.946c18.547,0,32.192-5.514,40.11-15.396c5.213-6.51,7.95-14.914,7.95-24.9
		C783.543,53.624,766.624,39.998,732.596,39.998z M720.488,64.408h4.232c15.761,0,22.875,4.163,22.875,15.893
		s-7.114,15.893-22.875,15.893h-4.232V64.408z"/>
</g>
</svg>
